<?xml version="1.0" encoding="utf-8"?>
<!-- Generator: Adobe Illustrator 25.0.0, SVG Export Plug-In . SVG Version: 6.00 Build 0)  -->
<svg version="1.1" id="Capa_1" xmlns="http://www.w3.org/2000/svg" xmlns:xlink="http://www.w3.org/1999/xlink" x="0px" y="0px"
	 viewBox="0 0 500 500" style="enable-background:new 0 0 500 500;" xml:space="preserve">
<style type="text/css">
	.st0{opacity:0.68;}
	.st1{fill:#648CBB;}
	.st2{fill:#FFFFFF;}
	.st3{opacity:0.58;}
	.st4{fill:none;stroke:#FFFFFF;stroke-width:2.4333;stroke-miterlimit:10;}
	.st5{fill:#00A7E2;}
	.st6{fill:#0063A6;}
	.st7{opacity:0.51;}
	.st8{fill:#333132;}
	.st9{fill:#D4D92E;}
	.st10{fill:#00AABD;}
	.st11{fill:#1B3D70;}
</style>
<g class="st0">
	<circle class="st1" cx="253.06" cy="250.44" r="176.5"/>
	<g>
		<path class="st2" d="M314.15,156.3c2.48,0.57,4.99,1.04,7.44,1.74c3.55,1.02,4.3,4.04,1.72,6.69c-4.39,4.51-8.8,9-13.27,13.45
			c-0.93,0.93-1.22,1.89-1.38,3.18c-0.5,3.98,0.62,7.15,3.9,9.51c0.1,0.07,0.19,0.16,0.25,0.26c2.37,3.58,5.71,4.88,9.86,4.08
			c0.88-0.17,1.9-0.49,2.51-1.09c4.49-4.41,8.89-8.92,13.33-13.38c3.12-3.14,5.89-2.35,7.3,1.82c1.33,3.95,0.77,7.98,1.01,11.98
			c0.34,5.49-1.18,10.48-3.59,15.31c-7.09,14.26-23.94,22.51-39.46,19.19c-1.92-0.41-3.18-0.13-4.61,1.34
			c-6.04,6.23-12.23,12.32-18.39,18.44c-0.47,0.47-1.12,0.76-1.79,1.19c2.14,1.97,3.84,3.54,6.14,5.66
			c0.55-0.84,0.97-1.77,1.65-2.43c1.72-1.65,3.95-1.65,5.39-0.15c1.44,1.5,1.41,3.51-0.2,5.26c-0.57,0.62-1.31,1.08-2.07,1.69
			c5.48,5.03,10.61,9.75,15.74,14.45c10.95,10.04,21.82,20.17,32.87,30.09c5.66,5.08,8.65,10.89,8.41,18.76
			c-0.28,9.01-4.53,15.05-12.16,18.9c-8.83,4.47-19.06,2.3-25.92-5.14c-14.71-15.95-29.4-31.93-44.09-47.9
			c-0.53-0.58-1.07-1.15-1.29-1.38c-1.98,0.94-3.67,1.93-5.49,2.49c-0.61,0.19-1.73-0.58-2.31-1.19c-1.7-1.79-1.18-3.31,2.33-7.25
			c-1.58-1.72-3.17-3.45-4.83-5.26c-0.28,0.23-0.51,0.4-0.71,0.59c-6.66,6.65-13.34,13.29-19.94,20c-0.53,0.54-0.9,1.64-0.76,2.36
			c3.1,15.75-1.88,28.57-14.6,38.03c-9.84,7.33-21.04,8.64-32.75,5c-2.99-0.93-3.62-4.08-1.31-6.41c4.47-4.52,8.99-9,13.55-13.42
			c1.09-1.05,1.43-2.14,1.6-3.64c0.4-3.72-0.55-6.69-3.69-8.84c-0.25-0.17-0.48-0.4-0.65-0.65c-2.46-3.61-5.91-4.82-10.1-4.06
			c-0.88,0.16-1.88,0.51-2.49,1.11c-4.45,4.37-8.81,8.83-13.2,13.25c-3.22,3.24-6.11,2.54-7.39-1.79
			c-6.18-20.86,7.05-42.55,28.5-46.59c4.97-0.94,9.97-0.79,14.93,0.31c0.6,0.13,1.53,0.03,1.92-0.36
			c8.77-8.69,17.49-17.43,26.29-26.25c-0.44-0.47-0.83-0.92-1.25-1.34c-14.16-14.2-28.33-28.38-42.46-42.61
			c-1-1-1.99-1.41-3.37-1.35c-2.2,0.09-4.4,0.01-6.6,0.02c-1.55,0.01-2.71-0.65-3.49-1.96c-5.13-8.53-10.26-17.06-15.36-25.61
			c-0.93-1.56-0.9-3.24,0.4-4.58c3.45-3.55,6.98-7.02,10.5-10.5c0.42-0.42,0.97-0.7,1.46-1.05c0.73,0,1.47,0,2.2,0
			c0.06,0.1,0.1,0.23,0.19,0.28c8.65,5.16,17.29,10.34,25.96,15.47c1.64,0.97,2.43,2.31,2.4,4.21c-0.03,2.08,0.07,4.16-0.03,6.23
			c-0.07,1.39,0.37,2.37,1.36,3.37c14.15,14.12,28.25,28.28,42.36,42.44c0.42,0.42,0.7,0.99,1.01,1.43
			c0.52-0.34,0.69-0.41,0.82-0.54c8.6-8.6,17.22-17.18,25.77-25.84c0.47-0.48,0.67-1.55,0.52-2.25c-0.87-4.16-1.23-8.33-0.6-12.55
			c1.99-13.32,8.99-23.08,21.16-28.78c3.79-1.78,8.15-2.35,12.25-3.47C309.75,156.3,311.95,156.3,314.15,156.3z M193.17,336.71
			c0.14,0.11,0.22,0.23,0.32,0.25c0.3,0.06,0.6,0.1,0.91,0.11c6.82,0.27,13.07-1.44,18.62-5.45c9.85-7.12,14.87-20,11-32.32
			c-0.68-2.16-0.31-3.83,1.33-5.46c23.8-23.74,47.57-47.52,71.32-71.31c1.62-1.63,3.28-1.99,5.46-1.36
			c16.66,4.79,33.16-4.9,37.14-21.8c0.71-3,0.9-6.04,0.44-9.16c-3.67,3.61-7.23,7.05-10.71,10.56c-1.25,1.26-2.61,1.88-4.39,1.83
			c-2.81-0.08-5.62-0.08-8.43,0c-1.8,0.05-3.15-0.61-4.36-1.89c-2.89-3.07-5.95-5.99-8.72-9.17c-0.92-1.05-1.52-2.65-1.65-4.06
			c-0.25-2.79-0.04-5.62-0.09-8.43c-0.03-1.76,0.6-3.16,1.85-4.4c3.13-3.1,6.19-6.26,9.27-9.41c0.35-0.36,0.65-0.77,1.14-1.35
			c-3.67-0.55-7-0.18-10.24,0.67c-16.21,4.25-25.51,20.41-20.97,36.56c0.73,2.59,0.23,4.36-1.63,6.21
			c-23.55,23.47-47.07,46.98-70.53,70.54c-1.88,1.88-3.7,2.36-6.23,1.66c-16.06-4.43-31.84,4.44-36.42,20.43
			c-0.99,3.44-1.28,6.97-0.8,10.66c0.28-0.17,0.34-0.2,0.39-0.24c3.5-3.5,7.02-6.99,10.48-10.52c1.14-1.17,2.42-1.74,4.07-1.7
			c2.87,0.07,5.75,0.08,8.62,0c1.8-0.05,3.16,0.6,4.37,1.87c1.9,1.99,3.89,3.89,5.82,5.85c5.7,5.81,4.7,3.73,5.07,12.07
			c0.2,4.47-0.97,7.83-4.45,10.72C198.26,331.1,195.81,334.02,193.17,336.71z M268.4,282.24c0.09,0.14,0.15,0.25,0.23,0.34
			c15.31,16.63,30.59,33.28,45.94,49.87c3.15,3.4,7.21,5.05,11.88,4.59c6.14-0.61,10.54-3.85,12.59-9.69
			c2.18-6.21,0.57-11.68-4.26-16.12c-15.73-14.48-31.5-28.92-47.25-43.37c-0.84-0.77-1.69-1.54-2.44-2.21
			C279.48,271.22,273.99,276.68,268.4,282.24z M242.71,234.81c-0.53-0.55-0.98-1.04-1.44-1.51c-13.38-13.41-26.79-26.78-40.13-40.23
			c-6.81-6.88-5.4-3.81-5.56-13.45c0-0.12-0.02-0.25,0-0.37c0.24-1.22-0.39-1.84-1.4-2.44c-6.41-3.79-12.78-7.64-19.17-11.47
			c-0.4-0.24-0.83-0.43-1.31-0.67c-1.75,1.76-3.36,3.52-5.12,5.11c-0.99,0.9-0.92,1.57-0.27,2.63c2.97,4.84,5.85,9.73,8.78,14.59
			c1.13,1.87,1.92,4.43,3.59,5.37c1.68,0.95,4.28,0.38,6.47,0.29c2.24-0.09,3.93,0.7,5.51,2.29c14.42,14.53,28.89,29,43.33,43.51
			c0.51,0.51,0.85,1.2,1.28,1.84C239.3,238.25,240.93,236.61,242.71,234.81z M262.9,276.34c5.45-5.45,10.81-10.81,16.21-16.21
			c-1.51-1.38-3.22-2.93-4.8-4.37c-5.31,5.31-10.51,10.51-15.81,15.81C259.96,273.15,261.56,274.89,262.9,276.34z"/>
		<path class="st2" d="M231.05,277.01c-3.48,0.04-5.28-2.89-3.96-5.3c0.37-0.68,0.94-1.27,1.5-1.83
			c14.72-14.74,29.46-29.47,44.2-44.2c0.51-0.51,1.06-1.03,1.68-1.4c1.49-0.87,2.95-0.65,4.23,0.47c1.23,1.06,1.54,2.91,0.71,4.33
			c-0.39,0.67-0.94,1.27-1.5,1.83c-14.72,14.74-29.45,29.48-44.21,44.18C232.79,276,231.6,276.61,231.05,277.01z"/>
		<path class="st2" d="M286.57,213.4c1.98-0.04,3.64,1.51,3.72,3.48c0.08,1.94-1.51,3.64-3.47,3.72c-2.06,0.09-3.8-1.54-3.82-3.56
			C282.97,215.09,284.59,213.44,286.57,213.4z"/>
		<path class="st2" d="M219.8,280.19c1.99-0.03,3.64,1.51,3.71,3.48c0.08,2-1.62,3.72-3.67,3.71c-1.99-0.01-3.61-1.61-3.62-3.58
			C216.2,281.84,217.81,280.22,219.8,280.19z"/>
		<path class="st2" d="M326.31,319.14c-0.06,3.43-2.89,5.15-5.25,3.89c-0.68-0.36-1.28-0.93-1.84-1.49
			c-10.44-10.38-20.86-20.77-31.28-31.16c-0.35-0.34-0.7-0.69-1-1.07c-1.34-1.66-1.34-3.57-0.01-4.99c1.34-1.43,3.43-1.51,5.13-0.18
			c0.38,0.3,0.72,0.66,1.06,1.01c10.42,10.39,20.86,20.77,31.24,31.2C325.29,317.29,325.9,318.55,326.31,319.14z"/>
	</g>
</g>
</svg>
